<?xml version="1.0" encoding="utf-8"?>
<!-- Generator: Adobe Illustrator 16.0.0, SVG Export Plug-In . SVG Version: 6.00 Build 0)  -->
<!DOCTYPE svg PUBLIC "-//W3C//DTD SVG 1.1//EN" "http://www.w3.org/Graphics/SVG/1.1/DTD/svg11.dtd">
<svg version="1.1" xmlns="http://www.w3.org/2000/svg" xmlns:xlink="http://www.w3.org/1999/xlink" x="0px" y="0px" width="60px"
	 height="60px" viewBox="0 0 60 60" enable-background="new 0 0 60 60" xml:space="preserve">
<g id="Layer_1">
</g>
<g id="txt">
	<linearGradient id="SVGID_2_" gradientUnits="userSpaceOnUse" x1="30" y1="58.4277" x2="30" y2="6.3544">
		<stop  offset="0" style="stop-color:#477256"/>
		<stop  offset="1" style="stop-color:#135D6B"/>
	</linearGradient>
	<rect fill="url(#SVGID_2_)" width="60" height="60"/>
	<g>
		<path fill="#FFFFFF" d="M47.678,49.463c0,1.09-0.877,1.974-1.959,1.974H14.283c-1.084,0-1.961-0.884-1.961-1.974v-27.47
			c0-1.09,0.877-1.974,1.961-1.974h31.436c1.082,0,1.959,0.884,1.959,1.974V49.463z"/>
		<g>
			<g>
				<path fill="none" stroke="#293F54" stroke-width="0.5669" stroke-miterlimit="10" d="M45.874,48.728c0,0.552-0.447,1-1,1H15.312
					c-0.551,0-1-0.448-1-1v-26c0-0.553,0.449-1,1-1h29.563c0.553,0,1,0.447,1,1V48.728z"/>
				
					<line fill="none" stroke="#293F54" stroke-width="0.5669" stroke-miterlimit="10" x1="14.124" y1="28.666" x2="45.812" y2="28.666"/>
				<circle fill="#00B1CC" cx="16.874" cy="25.291" r="0.813"/>
				<circle fill="#00B1CC" cx="20.874" cy="25.291" r="0.813"/>
				<circle fill="#00B1CC" cx="24.874" cy="25.291" r="0.813"/>
				<circle fill="#293F54" cx="30.249" cy="25.291" r="0.5"/>
				<circle fill="#293F54" cx="32.774" cy="25.291" r="0.5"/>
				<circle fill="#293F54" cx="35.3" cy="25.291" r="0.5"/>
				<circle fill="#293F54" cx="37.825" cy="25.291" r="0.5"/>
				<circle fill="#293F54" cx="40.351" cy="25.291" r="0.5"/>
				<circle fill="#293F54" cx="42.874" cy="25.291" r="0.5"/>
			</g>
			<path fill="#00B1CC" d="M14.312,38.494"/>
			
				<path fill="#FFFFFF" stroke="#00B1CC" stroke-width="0.4544" stroke-linecap="round" stroke-linejoin="round" stroke-miterlimit="10" d="
				M43.698,39.661c0,0.553-0.6,1-1.34,1H17.579c-0.74,0-1.34-0.447-1.34-1v-5.326c0-0.553,0.6-1,1.34-1h24.779
				c0.74,0,1.34,0.447,1.34,1V39.661z"/>
			<path fill="#FFC500" d="M42.62,38.66c0,0.33-0.535,0.597-1.201,0.597H19.212c-0.664,0-1.201-0.267-1.201-0.597v-3.182
				c0-0.33,0.537-0.597,1.201-0.597h22.207c0.666,0,1.201,0.267,1.201,0.597V38.66z"/>
			<path fill="#FFFFFF" d="M37.161,40.879c-0.125-0.473-0.293-1.426,0.445-1.448c0.58-0.017,0.857,0.839,1.014,1.267
				c0.041-0.976,0.047-1.939,0.039-2.914c-0.006-0.57,0.332-2.441,1.031-1.227c0.262,0.455,0.158,1.188,0.094,1.682
				c0.385-0.186,0.855,0.01,1.045,0.386c0.613-0.178,1.164,0.038,1.289,0.695c1.592-0.086,1.014,2.002,0.375,2.778
				c-0.971,1.181-3.068,0.942-4.309,0.274c-0.598-0.321-0.816-0.929-1.064-1.534"/>
			<g>
				<g>
					<g>
						<g>
							<g>
								<g>
									<path fill="#293F54" d="M39.829,39.862c-0.104,0-0.188-0.084-0.188-0.188v-1.426c0-0.104,0.084-0.188,0.188-0.188h0.557
										c0.412,0,0.746,0.334,0.746,0.746c0,0.104-0.084,0.188-0.188,0.188s-0.188-0.084-0.188-0.188
										c0-0.205-0.166-0.371-0.371-0.371h-0.369v1.238C40.017,39.778,39.933,39.862,39.829,39.862z"/>
								</g>
							</g>
						</g>
					</g>
					<g>
						<g>
							<g>
								<g>
									<path fill="#293F54" d="M42.491,44.686h-2.396c-0.105,0-0.188-0.084-0.188-0.188s0.082-0.188,0.188-0.188h2.246
										c0.027-0.109,0.068-0.27,0.127-0.451c0.316-0.983,0.49-2.014,0.518-3.062c0.002-0.104,0.094-0.19,0.193-0.183
										c0.104,0.003,0.186,0.09,0.182,0.193c-0.027,1.083-0.207,2.148-0.535,3.166c-0.1,0.311-0.148,0.557-0.148,0.56
										C42.659,44.624,42.581,44.686,42.491,44.686z"/>
								</g>
							</g>
						</g>
					</g>
					<g>
						<g>
							<g>
								<g>
									<path fill="#293F54" d="M38.911,44.686c-0.09,0-0.17-0.064-0.186-0.154c-0.002-0.011-0.182-0.998-0.822-1.713
										c-0.176-0.197-0.342-0.428-0.496-0.684c-0.357-0.598-0.547-1.289-0.547-2.002c0-0.468,0.381-0.849,0.85-0.849
										c0.35,0,0.668,0.219,0.793,0.544l0.021,0.058v-3.12c0-0.412,0.334-0.746,0.746-0.746c0.41,0,0.746,0.334,0.746,0.746v1.482
										c0,0.104-0.084,0.188-0.188,0.188s-0.188-0.084-0.188-0.188v-1.482c0-0.205-0.166-0.371-0.371-0.371
										s-0.369,0.166-0.369,0.371v4.132c0,0.091-0.066,0.168-0.154,0.185c-0.09,0.017-0.178-0.033-0.209-0.117l-0.385-1.002
										c-0.07-0.182-0.248-0.303-0.443-0.303c-0.262,0-0.475,0.213-0.475,0.473c0,0.645,0.172,1.27,0.494,1.809
										c0.141,0.236,0.293,0.447,0.453,0.626c0.715,0.798,0.904,1.854,0.912,1.898c0.02,0.103-0.049,0.199-0.15,0.217
										C38.933,44.686,38.921,44.686,38.911,44.686z"/>
								</g>
							</g>
						</g>
					</g>
					<g>
						<g>
							<g>
								<g>
									<path fill="#293F54" d="M42.062,40.762c-0.104,0-0.188-0.084-0.188-0.188v-1.352c0-0.203-0.166-0.369-0.371-0.369h-0.371
										v1.236c0,0.104-0.084,0.188-0.188,0.188s-0.188-0.084-0.188-0.188v-1.425c0-0.104,0.084-0.188,0.188-0.188h0.559
										c0.412,0,0.746,0.334,0.746,0.745v1.352C42.249,40.678,42.165,40.762,42.062,40.762z"/>
								</g>
							</g>
						</g>
					</g>
					<g>
						<g>
							<g>
								<g>
									<path fill="#293F54" d="M43.177,40.991c-0.104,0-0.188-0.084-0.188-0.188v-0.867c0-0.204-0.166-0.37-0.369-0.37h-0.559
										c-0.104,0-0.188-0.085-0.188-0.188s0.084-0.188,0.188-0.188h0.559c0.41,0,0.746,0.335,0.746,0.746v0.867
										C43.366,40.907,43.28,40.991,43.177,40.991z"/>
								</g>
							</g>
						</g>
					</g>
				</g>
				<g>
					<g>
						<g>
							<g>
								<path fill="#293F54" d="M42.8,47.154h-4.328c-0.104,0-0.188-0.084-0.188-0.188v-1.718c0-0.104,0.084-0.188,0.188-0.188H42.8
									c0.104,0,0.188,0.084,0.188,0.188v1.718C42.987,47.07,42.903,47.154,42.8,47.154z M38.661,46.779h3.951v-1.343h-3.951
									V46.779z"/>
							</g>
						</g>
					</g>
				</g>
				<g>
					<g>
						<g>
							<g>
								<path fill="#293F54" d="M41.839,46.458c-0.193,0-0.35-0.157-0.35-0.35c0-0.193,0.156-0.35,0.35-0.35
									c0.191,0,0.348,0.156,0.348,0.35C42.187,46.3,42.03,46.458,41.839,46.458z M41.839,46.082c-0.016,0-0.027,0.012-0.027,0.026
									c0,0.028,0.053,0.028,0.053,0C41.864,46.093,41.853,46.082,41.839,46.082z"/>
							</g>
						</g>
					</g>
				</g>
			</g>
			<g>
				<path fill="#293F54" d="M20.649,37.808l-0.229-0.33h-0.014h-0.24v0.33h-0.273v-1.186h0.514c0.316,0,0.514,0.164,0.514,0.43
					c0,0.179-0.09,0.309-0.244,0.375l0.268,0.381H20.649z M20.392,36.846h-0.225v0.413h0.225c0.168,0,0.252-0.078,0.252-0.207
					C20.644,36.922,20.56,36.846,20.392,36.846z"/>
				<path fill="#293F54" d="M22.054,37.588v0.22h-0.918v-1.186h0.896v0.22h-0.623V37.1h0.551v0.214h-0.551v0.274H22.054z"/>
				<path fill="#293F54" d="M23.55,37.935c-0.078,0.095-0.189,0.146-0.32,0.146c-0.176,0-0.299-0.064-0.482-0.257
					c-0.324-0.041-0.555-0.287-0.555-0.608c0-0.353,0.275-0.613,0.65-0.613c0.371,0,0.648,0.259,0.648,0.613
					c0,0.277-0.172,0.498-0.424,0.579c0.057,0.062,0.107,0.083,0.168,0.083c0.072,0,0.137-0.028,0.193-0.088L23.55,37.935z
					 M22.843,37.594c0.211,0,0.369-0.153,0.369-0.379s-0.158-0.38-0.369-0.38c-0.213,0-0.371,0.154-0.371,0.38
					S22.63,37.594,22.843,37.594z"/>
				<path fill="#293F54" d="M23.685,37.287v-0.664h0.275v0.653c0,0.226,0.098,0.318,0.264,0.318c0.168,0,0.264-0.093,0.264-0.318
					v-0.653h0.271v0.664c0,0.349-0.199,0.542-0.537,0.542C23.886,37.829,23.685,37.635,23.685,37.287z"/>
				<path fill="#293F54" d="M25.946,37.588v0.22h-0.918v-1.186h0.896v0.22h-0.623V37.1h0.551v0.214h-0.551v0.274H25.946z"/>
				<path fill="#293F54" d="M26.069,37.691l0.094-0.206c0.1,0.072,0.25,0.123,0.391,0.123c0.164,0,0.229-0.054,0.229-0.127
					c0-0.222-0.688-0.069-0.688-0.51c0-0.201,0.162-0.369,0.498-0.369c0.15,0,0.303,0.036,0.412,0.105l-0.084,0.208
					c-0.111-0.063-0.225-0.093-0.33-0.093c-0.162,0-0.225,0.061-0.225,0.135c0,0.219,0.689,0.068,0.689,0.503
					c0,0.198-0.164,0.368-0.502,0.368C26.364,37.829,26.175,37.773,26.069,37.691z"/>
				<path fill="#293F54" d="M27.472,36.846h-0.381v-0.224h1.033v0.224h-0.379v0.962h-0.273V36.846z"/>
				<path fill="#293F54" d="M29.53,37.554h-0.551l-0.104,0.254h-0.281l0.527-1.186h0.271l0.529,1.186h-0.287L29.53,37.554z
					 M29.444,37.346l-0.188-0.454l-0.189,0.454H29.444z"/>
				<path fill="#293F54" d="M31.806,37.935c-0.078,0.095-0.189,0.146-0.32,0.146c-0.176,0-0.299-0.064-0.482-0.257
					c-0.324-0.041-0.553-0.287-0.553-0.608c0-0.353,0.273-0.613,0.648-0.613c0.373,0,0.648,0.259,0.648,0.613
					c0,0.277-0.172,0.498-0.424,0.579c0.059,0.062,0.109,0.083,0.168,0.083c0.072,0,0.137-0.028,0.193-0.088L31.806,37.935z
					 M31.099,37.594c0.211,0,0.371-0.153,0.371-0.379s-0.16-0.38-0.371-0.38c-0.213,0-0.371,0.154-0.371,0.38
					S30.886,37.594,31.099,37.594z"/>
				<path fill="#293F54" d="M31.942,37.287v-0.664h0.273v0.653c0,0.226,0.098,0.318,0.264,0.318c0.168,0,0.266-0.093,0.266-0.318
					v-0.653h0.27v0.664c0,0.349-0.199,0.542-0.535,0.542C32.142,37.829,31.942,37.635,31.942,37.287z"/>
				<path fill="#293F54" d="M33.21,37.215c0-0.353,0.275-0.613,0.648-0.613s0.648,0.259,0.648,0.613
					c0,0.354-0.275,0.613-0.648,0.613S33.21,37.568,33.21,37.215z M34.229,37.215c0-0.226-0.158-0.38-0.371-0.38
					c-0.211,0-0.371,0.154-0.371,0.38s0.16,0.379,0.371,0.379C34.071,37.594,34.229,37.441,34.229,37.215z"/>
				<path fill="#293F54" d="M34.94,36.846h-0.379v-0.224h1.033v0.224h-0.379v0.962H34.94V36.846z"/>
				<path fill="#293F54" d="M36.659,37.588v0.22h-0.918v-1.186h0.896v0.22h-0.625V37.1h0.551v0.214h-0.551v0.274H36.659z"/>
			</g>
		</g>
	</g>
	<path fill="#98C020" d="M29.011,7.008c0.309,0,0.575-0.107,0.8-0.324c0.199-0.191,0.304-0.392,0.313-0.6
		c0.009-0.141-0.046-0.281-0.163-0.418c-0.116-0.138-0.263-0.206-0.437-0.206c-0.3,0-0.573,0.1-0.819,0.3
		c-0.244,0.199-0.372,0.407-0.38,0.624C28.308,6.8,28.536,7.008,29.011,7.008z"/>
	<path fill="#FFFFFF" d="M37.515,11.228l-0.14-0.185c-0.095,0.108-0.214,0.225-0.361,0.348c-0.179,0.147-0.302,0.222-0.37,0.222
		c-0.094,0-0.154-0.02-0.178-0.06c-0.024-0.039-0.035-0.11-0.029-0.214c0-0.039,0.03-0.191,0.092-0.455
		c0.062-0.263,0.095-0.464,0.101-0.602c0.004-0.202-0.033-0.358-0.111-0.466C36.414,9.684,36.241,9.627,36,9.646
		c-0.281,0.025-0.574,0.136-0.88,0.333c-0.128,0.084-0.251,0.183-0.37,0.296c0.213-0.89,0.321-1.497,0.326-1.824
		c0.005-0.483-0.194-0.733-0.599-0.748c-0.458-0.016-0.794,0.243-1.006,0.776c0.089-0.04,0.174-0.06,0.251-0.06
		c0.064,0,0.131,0.04,0.2,0.118c0.103,0.124,0.146,0.313,0.125,0.57c-0.014,0.188-0.059,0.591-0.134,1.207
		c-0.016,0.154-0.032,0.296-0.046,0.428c-0.029,0.021-0.057,0.042-0.088,0.063c-0.374,0.249-0.716,0.374-1.022,0.374
		c-0.408,0-0.608-0.153-0.6-0.461c0.017-0.534,0.107-1.233,0.274-2.099h0.887c0.067,0,0.101-0.029,0.101-0.088l0.11-0.536
		c0.018-0.084-0.019-0.125-0.11-0.125h-0.837c0.199-0.949,0.337-1.607,0.411-1.974c0.017-0.066-0.033-0.1-0.148-0.1
		c-0.219,0-0.501,0.092-0.85,0.274c-0.375,0.2-0.58,0.4-0.612,0.6l-0.2,1.199h-0.513c-0.066,0-0.104,0.029-0.112,0.087l-0.112,0.537
		c-0.017,0.084,0.021,0.125,0.112,0.125h0.514c-0.126,0.723-0.222,1.32-0.285,1.796c-0.124,0.124-0.266,0.254-0.428,0.39
		c-0.299,0.249-0.507,0.374-0.623,0.374c-0.268,0-0.396-0.179-0.389-0.537c0.125-0.782,0.242-1.427,0.35-1.935
		c0.033-0.3-0.015-0.544-0.144-0.731c-0.129-0.187-0.33-0.269-0.604-0.243c-0.176,0.017-0.441,0.184-0.8,0.5
		c-0.266,0.241-0.533,0.482-0.8,0.724l0.288,0.338c0.232-0.176,0.374-0.263,0.424-0.263c0.15,0,0.225,0.108,0.225,0.324
		c0,0.042-0.081,0.351-0.243,0.924c-0.041,0.146-0.077,0.282-0.108,0.409c-0.375,0.26-0.856,0.531-1.446,0.815
		c0.301-0.991,0.466-1.915,0.499-2.772c0.026-0.69-0.282-1.045-0.923-1.062c-0.774-0.024-1.282,0.408-1.523,1.299
		c0.135-0.058,0.274-0.087,0.418-0.087c0.118,0,0.215,0.047,0.292,0.143c0.075,0.097,0.109,0.207,0.102,0.331
		c-0.009,0.325-0.175,0.673-0.497,1.043c-0.323,0.371-0.61,0.557-0.862,0.557c-0.176,0-0.261-0.15-0.252-0.45
		c0.009-0.158,0.063-0.479,0.162-0.962c0.091-0.457,0.137-0.766,0.137-0.924c0-0.274-0.07-0.497-0.211-0.668
		c-0.142-0.171-0.347-0.244-0.612-0.219c-0.184,0.017-0.454,0.184-0.812,0.5c-0.267,0.241-0.532,0.482-0.8,0.724l0.287,0.338
		c0.233-0.176,0.376-0.263,0.425-0.263c0.158,0,0.233,0.108,0.225,0.324c0,0.018-0.074,0.279-0.225,0.787
		c-0.149,0.508-0.228,0.887-0.236,1.137c-0.017,0.342,0.046,0.604,0.188,0.786c0.174,0.225,0.467,0.32,0.876,0.287
		c0.485-0.033,0.97-0.212,1.455-0.537c0.201-0.133,0.393-0.287,0.576-0.462c-0.066,0.333-0.146,0.616-0.236,0.85
		c-0.9,0.408-1.549,0.758-1.948,1.049c-0.566,0.407-0.87,0.845-0.911,1.311c-0.076,0.808,0.332,1.212,1.223,1.212
		c0.6,0,1.179-0.366,1.736-1.1c0.475-0.623,0.887-1.456,1.236-2.497c0.605-0.3,1.116-0.594,1.535-0.882
		c-0.014,0.097-0.022,0.183-0.024,0.258c-0.009,0.267,0.057,0.482,0.193,0.649c0.138,0.167,0.335,0.25,0.594,0.25
		c0.557,0,1.116-0.242,1.674-0.725c0.162-0.143,0.31-0.292,0.444-0.448c-0.007,0.107-0.01,0.199-0.009,0.273
		c0.009,0.6,0.358,0.899,1.05,0.899c0.565,0,1.174-0.242,1.823-0.725c0.089-0.065,0.17-0.13,0.248-0.194c0,0.003,0,0.007,0,0.01
		c-0.01,0.237,0.045,0.425,0.162,0.563c0.148,0.167,0.389,0.246,0.725,0.237c-0.044-0.104-0.062-0.297-0.051-0.577
		c0.009-0.32,0.121-0.624,0.334-0.909c0.193-0.262,0.373-0.392,0.537-0.392c0.108,0,0.158,0.091,0.148,0.273
		c-0.006,0.118-0.034,0.289-0.086,0.514c-0.051,0.224-0.079,0.417-0.085,0.58c-0.005,0.158,0.034,0.286,0.115,0.384
		c0.081,0.1,0.197,0.148,0.351,0.148c0.33,0,0.66-0.143,0.991-0.429C37.188,11.726,37.377,11.488,37.515,11.228z M23.642,14.039
		c-0.134,0-0.195-0.059-0.187-0.175c0.016-0.217,0.39-0.504,1.122-0.862C24.195,13.693,23.884,14.039,23.642,14.039z"/>
</g>
</svg>
